<svg width="42.000000" height="47.000000" viewBox="0 0 42 47" fill="none" xmlns="http://www.w3.org/2000/svg" xmlns:xlink="http://www.w3.org/1999/xlink">
	<desc>
			Created with Pixso.
	</desc>
	<defs/>
	<path id="Vector 1" d="M9 0L4 0C1.79 0 0 1.79 0 4L0 43C0 45.2 1.79 47 4 47L9 47C11.2 47 13 45.2 13 43L13 4C13 1.79 11.2 0 9 0ZM38 0L33 0C30.79 0 29 1.79 29 4L29 43C29 45.2 30.79 47 33 47L38 47C40.2 47 42 45.2 42 43L42 4C42 1.79 40.2 0 38 0Z" fill="#313131" fill-opacity="1.000000" fill-rule="evenodd"/>
</svg>
